<?xml version="1.0" standalone="no"?>
<!DOCTYPE svg PUBLIC "-//W3C//DTD SVG 20010904//EN"
 "http://www.w3.org/TR/2001/REC-SVG-20010904/DTD/svg10.dtd">
<svg version="1.0" xmlns="http://www.w3.org/2000/svg"
 width="980.000000pt" height="980.000000pt" viewBox="0 0 980.000000 980.000000"
 preserveAspectRatio="xMidYMid meet">
<metadata>
Created by potrace 1.11, written by Peter Selinger 2001-2013
</metadata>
<g transform="translate(0.000000,980.000000) scale(0.100000,-0.100000)"
fill="#000000" stroke="none">
<path d="M4190 9169 c-98 -14 -3655 -1204 -3894 -1302 -161 -66 -279 -232
-293 -412 -6 -81 -10 -68 157 -590 132 -411 417 -1264 1065 -3185 594 -1763
709 -2092 746 -2146 66 -96 192 -180 309 -205 116 -25 171 -10 997 268 254 85
469 153 476 150 8 -3 40 -42 71 -87 60 -85 142 -155 225 -192 52 -24 281 -73
1511 -328 1486 -307 2510 -511 2572 -511 72 0 128 15 203 54 78 42 184 147
218 217 57 118 104 339 807 3785 267 1310 367 1815 416 2088 26 145 27 163 16
230 -25 141 -129 295 -235 346 -101 49 -662 169 -2627 561 -747 149 -1224 242
-1442 279 -97 17 -128 19 -175 10 -73 -14 -145 -48 -224 -105 -33 -25 -67 -43
-74 -40 -7 2 -55 130 -105 283 -165 493 -211 602 -296 689 -103 107 -276 165
-424 143z m99 -363 c39 -21 86 -77 111 -133 38 -85 163 -446 335 -961 l167
-502 -306 -1458 c-795 -3781 -750 -3574 -777 -3585 -83 -32 -1327 -448 -1386
-463 l-72 -18 -27 24 c-77 72 -168 323 -809 2226 -736 2185 -1145 3428 -1145
3482 0 19 9 50 20 68 29 46 83 67 995 381 566 195 2835 953 2853 953 7 0 26
-7 41 -14z m1946 -1123 c1769 -355 3065 -626 3115 -653 10 -5 30 -24 45 -42
26 -30 27 -36 21 -98 -16 -158 -215 -1158 -761 -3830 -328 -1607 -400 -1933
-441 -1995 -8 -12 -32 -31 -54 -44 l-39 -22 -748 150 c-2668 535 -3078 623
-3203 686 -63 32 -74 53 -65 121 9 75 328 1666 614 3064 496 2426 540 2631
588 2743 21 49 84 88 127 80 17 -3 378 -75 801 -160z"/>
<path d="M1133 7288 c-12 -6 -24 -20 -28 -32 -4 -11 -9 -177 -12 -367 l-5
-347 28 6 c45 8 52 19 59 90 3 37 8 88 11 114 l6 47 109 36 c60 20 113 35 118
33 5 -2 38 -39 73 -83 64 -81 93 -98 128 -76 12 9 12 14 -2 45 -21 43 -245
341 -346 459 -77 89 -92 98 -139 75z m150 -220 c49 -65 87 -123 85 -129 -5
-16 -168 -73 -179 -62 -11 12 -34 296 -25 319 7 17 9 17 19 4 7 -9 52 -68 100
-132z"/>
<path d="M1446 6391 c-8 -12 -76 -339 -76 -362 0 -33 261 -279 296 -279 12 0
23 45 55 225 32 185 39 167 -108 295 -137 119 -159 135 -167 121z"/>
<path d="M2930 6392 c0 -11 -135 -755 -203 -1120 l-44 -233 376 -343 c531
-485 630 -570 646 -554 8 8 42 184 130 663 88 484 109 623 103 667 -2 20 -110
123 -478 458 -478 434 -530 479 -530 462z"/>
<path d="M5862 7265 c-21 -15 -331 -525 -358 -590 -13 -32 -12 -33 12 -39 42
-11 57 0 106 82 65 109 64 108 154 93 143 -24 150 -30 179 -166 18 -83 39
-115 77 -115 23 0 25 -29 -28 400 -42 335 -40 328 -67 335 -12 4 -29 8 -37 11
-9 2 -26 -3 -38 -11z m49 -222 c10 -70 19 -143 19 -161 l0 -33 -45 6 c-93 15
-160 30 -159 38 2 11 134 258 147 275 5 7 12 11 14 8 3 -2 13 -62 24 -133z"/>
<path d="M5382 6380 c-57 -41 -100 -103 -107 -155 -13 -86 40 -240 127 -368
50 -74 166 -197 185 -197 30 0 177 71 256 124 92 61 201 168 221 218 41 100
23 204 -48 274 -67 68 -156 80 -247 34 -52 -27 -62 -25 -93 14 -38 51 -116 86
-191 86 -53 0 -68 -4 -103 -30z"/>
<path d="M6104 5381 c-192 -52 -321 -161 -423 -356 l-36 -70 0 -220 0 -220 38
-110 c110 -323 337 -662 690 -1030 l124 -130 84 34 c430 175 881 458 1079 679
180 201 272 404 273 597 0 242 -123 444 -344 560 -91 47 -166 65 -279 65 -163
0 -251 -28 -385 -119 -33 -23 -64 -41 -70 -40 -5 0 -30 32 -55 71 -124 196
-294 294 -525 304 -78 3 -116 0 -171 -15z"/>
<path d="M7840 3147 c-174 -86 -325 -207 -365 -292 -27 -56 -32 -155 -11 -210
23 -59 82 -110 150 -130 52 -15 57 -15 113 5 100 37 107 36 138 -4 88 -115
295 -101 361 26 8 15 19 49 24 76 13 60 -7 170 -46 250 -51 105 -231 322 -266
322 -7 0 -51 -19 -98 -43z"/>
<path d="M7484 2278 c4 -24 17 -137 31 -253 26 -218 48 -353 65 -417 9 -33 15
-38 39 -38 52 0 106 73 308 419 62 107 113 200 113 207 0 17 -47 27 -69 14
-11 -5 -39 -42 -63 -81 -24 -40 -54 -80 -68 -90 -23 -17 -30 -17 -95 -4 -132
27 -160 57 -171 175 -7 67 -9 74 -38 91 -49 30 -58 25 -52 -23z m227 -298
c100 -17 100 -18 55 -102 -72 -136 -117 -208 -125 -203 -5 2 -12 40 -16 82 -3
43 -11 109 -17 146 -11 77 -6 101 19 93 10 -3 47 -10 84 -16z"/>
</g>
</svg>
